<svg xmlns="http://www.w3.org/2000/svg" width="16" height="16" viewBox="0 0 16 16" fill="none">
  <path d="M1.33331 10.1334V6.00008C1.33331 3.66675 2.66665 2.66675 4.66665 2.66675H11.3333C13.3333 2.66675 14.6666 3.66675 14.6666 6.00008V10.0001C14.6666 12.3334 13.3333 13.3334 11.3333 13.3334H5.66665" stroke="#A2A5B9" stroke-miterlimit="10" stroke-linecap="round" stroke-linejoin="round"/>
  <path d="M7.99998 9.66658C8.92045 9.66658 9.66665 8.92039 9.66665 7.99992C9.66665 7.07944 8.92045 6.33325 7.99998 6.33325C7.07951 6.33325 6.33331 7.07944 6.33331 7.99992C6.33331 8.92039 7.07951 9.66658 7.99998 9.66658Z" stroke="#A2A5B9" stroke-miterlimit="10" stroke-linecap="round" stroke-linejoin="round"/>
  <path d="M12.3333 6.33325V9.66659" stroke="#A2A5B9" stroke-miterlimit="10" stroke-linecap="round" stroke-linejoin="round"/>
  <path d="M6.00002 11.9999C6.00002 12.4999 5.86001 12.9733 5.61334 13.3733C5.15334 14.1466 4.30669 14.6666 3.33335 14.6666C2.36002 14.6666 1.51337 14.1466 1.05337 13.3733C0.806698 12.9733 0.666687 12.4999 0.666687 11.9999C0.666687 10.5266 1.86002 9.33325 3.33335 9.33325C4.80669 9.33325 6.00002 10.5266 6.00002 11.9999Z" stroke="#A2A5B9" stroke-miterlimit="10" stroke-linecap="round" stroke-linejoin="round"/>
  <path d="M5.16667 10.1667L1.5 13.8334" stroke="#A2A5B9" stroke-miterlimit="10" stroke-linecap="round" stroke-linejoin="round"/>
</svg>
