<svg xmlns="http://www.w3.org/2000/svg" width="16" height="16" viewBox="0 0 16 16" fill="none">
  <path d="M1.26562 6.68677H14.599" stroke="#A2A5B9" stroke-miterlimit="10" stroke-linecap="round" stroke-linejoin="round"/>
  <path d="M7.63896 13.6868H4.23226C1.86559 13.6868 1.26562 13.1001 1.26562 10.7601V5.28011C1.26562 3.16011 1.75894 2.48011 3.61894 2.37344C3.8056 2.36678 4.01226 2.36011 4.23226 2.36011H11.639C14.0056 2.36011 14.6056 2.94677 14.6056 5.28677V8.22678" stroke="#A2A5B9" stroke-linecap="round" stroke-linejoin="round"/>
  <path d="M11.9323 14.6868C13.4051 14.6868 14.599 13.4929 14.599 12.0202C14.599 10.5474 13.4051 9.35352 11.9323 9.35352C10.4595 9.35352 9.26562 10.5474 9.26562 12.0202C9.26562 13.4929 10.4595 14.6868 11.9323 14.6868Z" stroke="#A2A5B9" stroke-miterlimit="10" stroke-linecap="round" stroke-linejoin="round"/>
  <path d="M12.6462 12.7668L11.2396 11.3535" stroke="#A2A5B9" stroke-miterlimit="10" stroke-linecap="round" stroke-linejoin="round"/>
  <path d="M12.6321 11.3735L11.2188 12.7802" stroke="#A2A5B9" stroke-miterlimit="10" stroke-linecap="round" stroke-linejoin="round"/>
  <path d="M3.93231 10.6868H6.59898" stroke="#A2A5B9" stroke-miterlimit="10" stroke-linecap="round" stroke-linejoin="round"/>
</svg>
