<svg xmlns="http://www.w3.org/2000/svg" width="16" height="16" viewBox="0 0 16 16" fill="none">
  <path d="M7.16775 11.2402V12.5936C7.16775 13.7403 6.10107 14.6669 4.78774 14.6669C3.47441 14.6669 2.40106 13.7403 2.40106 12.5936V11.2402C2.40106 12.3869 3.46774 13.2002 4.78774 13.2002C6.10107 13.2002 7.16775 12.3802 7.16775 11.2402Z" stroke="#A2A5B9" stroke-linecap="round" stroke-linejoin="round"/>
  <path d="M7.16669 9.40662C7.16669 9.73995 7.07335 10.0466 6.91335 10.3133C6.52002 10.9599 5.71334 11.3666 4.78001 11.3666C3.84668 11.3666 3.04 10.9533 2.64667 10.3133C2.48667 10.0466 2.39337 9.73995 2.39337 9.40662C2.39337 8.83328 2.66002 8.31995 3.08669 7.94661C3.52002 7.56661 4.11334 7.33997 4.77334 7.33997C5.43334 7.33997 6.02669 7.57328 6.46002 7.94661C6.90002 8.31328 7.16669 8.83328 7.16669 9.40662Z" stroke="#A2A5B9" stroke-linecap="round" stroke-linejoin="round"/>
  <path d="M7.16775 9.4067V11.24C7.16775 12.3867 6.10107 13.2 4.78774 13.2C3.47441 13.2 2.40106 12.38 2.40106 11.24V9.4067C2.40106 8.26003 3.46774 7.33337 4.78774 7.33337C5.44774 7.33337 6.04109 7.56669 6.47443 7.94002C6.90109 8.31336 7.16775 8.83336 7.16775 9.4067Z" stroke="#A2A5B9" stroke-linecap="round" stroke-linejoin="round"/>
  <path d="M14.6667 7.31327V8.68665C14.6667 9.05331 14.3733 9.35328 14 9.36662H12.6933C11.9733 9.36662 11.3133 8.83995 11.2533 8.11995C11.2133 7.69995 11.3733 7.30662 11.6533 7.03328C11.9 6.77995 12.24 6.6333 12.6133 6.6333H14C14.3733 6.64663 14.6667 6.94661 14.6667 7.31327Z" stroke="#A2A5B9" stroke-linecap="round" stroke-linejoin="round"/>
  <path d="M1.33331 7.00004V5.66671C1.33331 3.85337 2.42665 2.58671 4.12665 2.37337C4.29998 2.34671 4.47998 2.33337 4.66665 2.33337H10.6666C10.84 2.33337 11.0066 2.34003 11.1666 2.3667C12.8866 2.5667 14 3.84004 14 5.66671V6.63338H12.6133C12.24 6.63338 11.9 6.78003 11.6533 7.03337C11.3733 7.3067 11.2133 7.70004 11.2533 8.12004C11.3133 8.84004 11.9733 9.3667 12.6933 9.3667H14V10.3334C14 12.3334 12.6666 13.6667 10.6666 13.6667H8.99998" stroke="#A2A5B9" stroke-linecap="round" stroke-linejoin="round"/>
</svg>
