<svg width="16" height="16" viewBox="0 0 16 16" fill="none" xmlns="http://www.w3.org/2000/svg">
  <path d="M5.99967 14.6668H9.99967C13.333 14.6668 14.6663 13.3335 14.6663 10.0002V6.00016C14.6663 2.66683 13.333 1.3335 9.99967 1.3335H5.99967C2.66634 1.3335 1.33301 2.66683 1.33301 6.00016V10.0002C1.33301 13.3335 2.66634 14.6668 5.99967 14.6668Z" stroke="currentColor" stroke-linecap="round" stroke-linejoin="round"/>
  <path d="M4.4668 6.17334L8.00012 8.22001L11.5068 6.18667" stroke="currentColor" stroke-linecap="round" stroke-linejoin="round"/>
  <path d="M8 11.8467V8.21338" stroke="currentColor" stroke-linecap="round" stroke-linejoin="round"/>
  <path d="M7.1735 4.1934L5.04016 5.38007C4.56016 5.64673 4.16016 6.32007 4.16016 6.8734V9.1334C4.16016 9.68673 4.55349 10.3601 5.04016 10.6267L7.1735 11.8134C7.62684 12.0667 8.3735 12.0667 8.8335 11.8134L10.9668 10.6267C11.4468 10.3601 11.8468 9.68673 11.8468 9.1334V6.86674C11.8468 6.3134 11.4535 5.64007 10.9668 5.3734L8.8335 4.18673C8.3735 3.9334 7.62684 3.9334 7.1735 4.1934Z" stroke="currentColor" stroke-linecap="round" stroke-linejoin="round"/>
</svg>
