<svg width="16" height="16" viewBox="0 0 16 16" fill="none" xmlns="http://www.w3.org/2000/svg">
<path d="M6.00033 12.6667C6.00033 13.1667 5.86032 13.64 5.61366 14.04C5.15366 14.8133 4.30699 15.3333 3.33366 15.3333C2.36033 15.3333 1.51366 14.8133 1.05366 14.04C0.806993 13.64 0.666992 13.1667 0.666992 12.6667C0.666992 11.1933 1.86033 10 3.33366 10C4.80699 10 6.00033 11.1933 6.00033 12.6667Z" stroke="currentColor" stroke-miterlimit="10" stroke-linecap="round" stroke-linejoin="round"/>
<path d="M2.29492 12.666L2.95492 13.326L4.37492 12.0127" stroke="currentColor" stroke-linecap="round" stroke-linejoin="round"/>
<path d="M11.8346 4.69965C11.6746 4.67299 11.5079 4.66633 11.3346 4.66633H4.66793C4.48126 4.66633 4.30126 4.67966 4.12793 4.70633C4.22126 4.51966 4.3546 4.34635 4.5146 4.18635L6.68126 2.01301C7.5946 1.10634 9.0746 1.10634 9.98793 2.01301L11.1546 3.19298C11.5813 3.61298 11.8079 4.14632 11.8346 4.69965Z" stroke="currentColor" stroke-linecap="round" stroke-linejoin="round"/>
<path d="M14.6663 8.00033V11.3337C14.6663 13.3337 13.333 14.667 11.333 14.667H5.08634C5.29301 14.4937 5.47301 14.2803 5.61301 14.0403C5.85967 13.6403 5.99967 13.167 5.99967 12.667C5.99967 11.1937 4.80634 10.0003 3.33301 10.0003C2.53301 10.0003 1.81967 10.3536 1.33301 10.907V8.00033C1.33301 6.18699 2.42634 4.92032 4.12634 4.70699C4.29967 4.68032 4.47967 4.66699 4.66634 4.66699H11.333C11.5063 4.66699 11.673 4.67365 11.833 4.70032C13.553 4.90032 14.6663 6.17366 14.6663 8.00033Z" stroke="currentColor" stroke-linecap="round" stroke-linejoin="round"/>
<path d="M14.6663 8.33301H12.6663C11.933 8.33301 11.333 8.93301 11.333 9.66634C11.333 10.3997 11.933 10.9997 12.6663 10.9997H14.6663" stroke="currentColor" stroke-linecap="round" stroke-linejoin="round"/>
</svg>
