<svg width="17" height="17" viewBox="0 0 17 17" fill="none" xmlns="http://www.w3.org/2000/svg">
<path d="M0.822712 17.0011C0.659725 17.001 0.500418 16.9526 0.364938 16.862C0.229459 16.7714 0.123894 16.6426 0.0615944 16.492C-0.00070497 16.3414 -0.0169398 16.1757 0.0149433 16.0159C0.0468263 15.856 0.125395 15.7092 0.240712 15.5941L14.5937 1.24107C14.6691 1.16115 14.7598 1.09715 14.8603 1.05283C14.9609 1.00851 15.0693 0.984773 15.1791 0.983015C15.289 0.981258 15.3981 1.00152 15.5 1.0426C15.6019 1.08368 15.6945 1.14475 15.7725 1.22221C15.8504 1.29967 15.912 1.39195 15.9537 1.49361C15.9954 1.59527 16.0163 1.70425 16.0152 1.81412C16.0141 1.92399 15.9911 2.03253 15.9473 2.13334C15.9036 2.23414 15.8402 2.32518 15.7607 2.40107L1.40471 16.7591C1.25039 16.9136 1.0411 17.0006 0.822712 17.0011Z" fill="currentColor"/>
<path d="M15.1769 17.001C15.0687 17.0013 14.9616 16.9802 14.8617 16.9388C14.7618 16.8975 14.6711 16.8367 14.5949 16.76L0.240876 2.40099C0.103118 2.24364 0.0304337 2.03974 0.0375921 1.83072C0.0447504 1.6217 0.131214 1.42325 0.279415 1.27569C0.427616 1.12812 0.626437 1.04252 0.835481 1.03626C1.04453 1.03 1.24811 1.10356 1.40488 1.24199L15.7609 15.595C15.876 15.7103 15.9543 15.8572 15.9859 16.0171C16.0175 16.1769 16.001 16.3426 15.9385 16.4931C15.876 16.6436 15.7703 16.7721 15.6347 16.8625C15.4992 16.9529 15.3398 17.0011 15.1769 17.001Z" fill="currentColor"/>
</svg>
