<svg width="14" height="14" viewBox="0 0 14 14" fill="none" xmlns="http://www.w3.org/2000/svg">
<path d="M9.33317 1.16666H4.6665C2.33317 1.16666 1.1665 2.33332 1.1665 4.66666V12.25C1.1665 12.5708 1.429 12.8333 1.74984 12.8333H9.33317C11.6665 12.8333 12.8332 11.6667 12.8332 9.33332V4.66666C12.8332 2.33332 11.6665 1.16666 9.33317 1.16666Z" stroke="white" stroke-linecap="round" stroke-linejoin="round"/>
<path d="M7.53063 4.57333L4.50313 7.60083C4.38646 7.7175 4.27563 7.945 4.2523 8.10833L4.08897 9.26333C4.03064 9.68333 4.3223 9.975 4.7423 9.91666L5.89729 9.75333C6.06062 9.73 6.28814 9.61917 6.4048 9.5025L9.4323 6.475C9.95147 5.95583 10.2023 5.34916 9.4323 4.57916C8.6623 3.80333 8.05563 4.04833 7.53063 4.57333Z" stroke="white" stroke-miterlimit="10" stroke-linecap="round" stroke-linejoin="round"/>
<path d="M7.09912 5.005C7.35579 5.92084 8.07329 6.64417 8.99495 6.90084" stroke="white" stroke-miterlimit="10" stroke-linecap="round" stroke-linejoin="round"/>
</svg>
