<svg width="16" height="16" viewBox="0 0 16 16" fill="none" xmlns="http://www.w3.org/2000/svg">
  <path d="M13.999 3.98665C11.779 3.76665 9.54569 3.65332 7.31902 3.65332C5.99902 3.65332 4.67902 3.71999 3.35902 3.85332L1.99902 3.98665" stroke="currentColor" stroke-linecap="round" stroke-linejoin="round"/>
  <path d="M5.66797 3.31301L5.81464 2.43967C5.9213 1.80634 6.0013 1.33301 7.12797 1.33301H8.87464C10.0013 1.33301 10.088 1.83301 10.188 2.44634L10.3346 3.31301" stroke="currentColor" stroke-linecap="round" stroke-linejoin="round"/>
  <path d="M12.5679 6.09375L12.1346 12.8071C12.0612 13.8537 12.0012 14.6671 10.1412 14.6671H5.86124C4.00124 14.6671 3.94124 13.8537 3.8679 12.8071L3.43457 6.09375" stroke="currentColor" stroke-linecap="round" stroke-linejoin="round"/>
  <path d="M6.88672 11H9.10672" stroke="currentColor" stroke-linecap="round" stroke-linejoin="round"/>
  <path d="M6.33203 8.33301H9.66536" stroke="currentColor" stroke-linecap="round" stroke-linejoin="round"/>
</svg>
