<svg width="88" height="30" viewBox="0 0 88 50" fill="none" xmlns="http://www.w3.org/2000/svg">
<path fill-rule="evenodd" clip-rule="evenodd" d="M33.6894 3.15366C29.7285 1.05437 25.1176 0 19.8522 0H0V21.0526H45.7955C45.3675 17.7559 44.3824 14.7142 42.8399 11.9811C40.7053 8.19858 37.6551 5.25768 33.6942 3.14894L33.6894 3.15366ZM45.646 29.8246H0V50H19.8522C25.0702 50 29.6573 48.9267 33.623 46.7707C37.584 44.6194 40.6436 41.6548 42.802 37.8676C44.2062 35.4067 45.1546 32.7257 45.646 29.8246ZM60.0736 29.8246H74.02V50H60.0736V29.8246ZM74.02 21.0526H60.0736V11.0638H46.0372V0H87.3971V11.0638H74.02V21.0526Z" fill="white"/>
</svg>
